<svg xmlns="http://www.w3.org/2000/svg" xmlns:xlink="http://www.w3.org/1999/xlink" fill="none" version="1.1" width="75.998779296875" height="26" viewBox="0 0 75.998779296875 26"><g style="mix-blend-mode:passthrough"><g><g style="mix-blend-mode:passthrough"><g><g style="mix-blend-mode:passthrough"><path d="M35.268310296875,6.230389L35.268310296875,7.9061699999999995L39.569089296875,7.9061699999999995L39.569089296875,19.08L41.514399296875,19.08L41.514399296875,7.9061699999999995L45.797579296875,7.9061699999999995L45.797579296875,6.230389L35.268310296875,6.230389ZM47.826879296875,5.9784355L47.826879296875,19.08L49.731179296875,19.08L49.731179296875,13.86515C49.731179296875,13.050699999999999,49.930379296875,12.38859,50.346479296875,11.86711C50.744879296875,11.33976,51.266379296875,11.087810000000001,51.910879296874995,11.087810000000001C52.631579296875,11.087810000000001,53.188279296874995,11.30461,53.551479296875,11.75578C53.873779296875,12.18937,54.055379296875,12.79875,54.055379296875,13.63078L54.055379296875,19.08L55.965579296875,19.08L55.965579296875,13.30265C55.965579296875,12.07804,55.690179296875,11.1464,55.151079296875,10.51359C54.576879296875,9.84562,53.733179296875,9.52336,52.613979296875,9.52336C52.022179296874995,9.52336,51.500779296874995,9.634689999999999,51.031979296875,9.88664C50.510479296875,10.13859,50.076879296875,10.54875,49.731179296875,11.087810000000001L49.731179296875,5.9784355L47.826879296875,5.9784355ZM62.735079296875,9.52336C61.328879296875,9.52336,60.197979296875005,9.99211,59.348379296874995,10.92961C58.504679296875,11.84367,58.088579296875,13.01554,58.088579296875,14.43937C58.088579296875,15.83976,58.504679296875,17.0116,59.330779296875,17.914C60.197979296875005,18.8515,61.328879296875,19.3378,62.735079296875,19.3378C64.141379296875,19.3378,65.272179296875,18.8515,66.139379296875,17.914C66.965579296875,17.0116,67.381579296875,15.83976,67.381579296875,14.43937C67.381579296875,13.01554,66.947979296875,11.84367,66.121779296875,10.92961C65.272179296875,9.99211,64.141379296875,9.52336,62.735079296875,9.52336ZM62.735079296875,11.087810000000001C63.619879296875,11.087810000000001,64.299579296875,11.43351,64.803479296875,12.13664C65.237079296875,12.728439999999999,65.453879296875,13.50187,65.453879296875,14.43937C65.453879296875,15.35929,65.237079296875,16.1152,64.803479296875,16.7245C64.299579296875,17.4101,63.619879296875,17.7675,62.735079296875,17.7675C61.850379296875005,17.7675,61.170679296875,17.4101,60.684279296875005,16.7245C60.250779296874995,16.1327,60.051479296875,15.37687,60.051479296875,14.43937C60.051479296875,13.50187,60.250779296874995,12.728439999999999,60.684279296875005,12.13664C61.170679296875,11.43351,61.850379296875005,11.087810000000001,62.735079296875,11.087810000000001ZM74.145279296875,9.52336C73.571079296875,9.52336,73.067179296875,9.68742,72.633579296875,10.04484C72.276079296875,10.29679,71.965579296875,10.67765,71.731179296875,11.181560000000001L71.731179296875,9.775310000000001L69.826879296875,9.775310000000001L69.826879296875,19.08L71.731179296875,19.08L71.731179296875,14.15226C71.731179296875,13.337810000000001,71.965579296875,12.675699999999999,72.451879296875,12.17179C72.903079296875,11.70304,73.42457929687501,11.46867,74.004679296875,11.46867C74.432379296875,11.46867,74.883579296875,11.5214,75.352279296875,11.66789L75.352279296875,9.75773C75.029979296875,9.59367,74.613979296875,9.52336,74.145279296875,9.52336Z" fill="#FFFFFF" fill-opacity="1"/></g></g></g><g style="mix-blend-mode:passthrough"><g><g style="mix-blend-mode:passthrough"><path d="M13.4532,0.444824C12.4248,-0.148275,11.1582,-0.148275,10.1298,0.444824L1.66672,5.28145L1.66388,5.28429C0.635687,5.87732,0,6.97377,0,8.16124L0,17.8388C0.00134809,19.0275,0.636676,20.1252,1.66672,20.7186L10.1298,25.5552C11.1582,26.1483,12.4248,26.1483,13.4532,25.5552L21.9177,20.7186L21.9205,20.7157C22.9502,20.1227,23.5844,19.0262,23.5844,17.8388L23.5844,8.16124C23.5831,6.97252,22.9477,5.87479,21.9177,5.28145L13.4532,0.444824ZM21.9889,6.02709C22.2215,6.08896,22.4199,6.2407,22.5406,6.44891L22.6032,6.58259C22.7605,6.9981,22.5937,7.46638,22.2092,7.689L12.6981,13.1883L12.6981,24.7288C12.6895,25.2207,12.2842,25.6128,11.7922,25.6049C11.2902,25.6049,10.8835,25.2123,10.8835,24.7288L10.8835,13.1812L1.388,7.69042C0.954449,7.43909,0.806733,6.88388,1.05807,6.45033C1.3094,6.01678,1.8646,5.86907,2.29815,6.1204L11.7993,11.6126L21.3005,6.11898C21.5087,5.99827,21.7563,5.96521,21.9889,6.02709Z" fill-rule="evenodd" fill="#FF7126" fill-opacity="1"/></g></g></g></g></g></svg>